<svg xmlns="http://www.w3.org/2000/svg" xmlns:xlink="http://www.w3.org/1999/xlink" width="797.6775455474854" height="348.0069580078125" viewBox="0 0 797.6775455474854 348.0069580078125" fill="none"><circle cx="66.51449012756348" cy="166.5" r="21"   fill="#000000" ></circle><path d="M164.014 0.5L192.014 0.5L200.014 0.5L212.014 2.5L237.014 9.5C263.348 19.5 285.514 33.6667 303.514 52C249.314 82.1333 199.147 116.3 153.014 154.5L132.014 131.5C121.614 122.567 108.947 115.9 94.0145 111.5L84.0145 109.5L61.0145 109.5C37.0145 113.833 18.8478 124 6.51449 140L1.01449 147.5L0.51449 146C4.18115 125.333 10.5145 107.333 19.5145 92C29.3812 74.2 41.5478 58.7 56.0145 45.5C69.7478 32.9 85.7478 22.5667 104.014 14.5L138.014 3.5L155.014 0.5L164.014 0.5Z" stroke="rgba(0, 0, 0, 1)" stroke-width="1"      fill="#000000" ></path><path d="M323.014 76.5L325.514 77L318.014 85.5C276.281 125.433 236.115 169.933 200.514 216L157.514 276L129.514 322L120.514 340.5C108.181 337.367 97.0145 332.7 87.0145 326.5L71.0145 316.5L55.5145 304.5L55.5145 302L77.5145 274C95.3145 253.133 114.148 233.3 134.014 214.5C189.481 160.967 252.481 114.967 323.014 76.5Z" stroke="rgba(0, 0, 0, 1)" stroke-width="1"      fill="#000000" ></path><path d="M340.014 113.507L345.514 125.007L351.514 155.007L351.514 191.007L344.514 224.007L331.514 255.007C321.247 273.074 308.747 288.907 294.014 302.507C278.014 317.174 259.014 328.84 237.014 337.507L222.014 342.507L204.014 346.507L188.014 347.507L161.014 347.507L150.514 347.507L152.514 341.007L175.514 302.007L220.514 238.007C244.981 206.474 271.482 176.974 300.014 149.507L340.014 113.507Z" stroke="rgba(0, 0, 0, 1)" stroke-width="1"      fill="#000000" ></path><g ><path     fill="#000000"  d="M532.838 160.519L505.258 160.519L497.558 137.699L458.078 137.699L450.378 160.519L422.798 160.519L464.518 47.1194L491.118 47.1194L532.838 160.519ZM477.398 80.9994L466.478 113.339L489.158 113.339L478.238 80.9994L477.398 80.9994ZM619.358 112.219Q619.358 121.039 617.398 128.039L565.038 128.039Q567.698 142.039 581.278 142.039Q586.318 142.039 590.238 139.029Q594.158 136.019 596.398 130.979L617.118 139.519Q612.918 150.439 603.538 156.459Q594.158 162.479 581.138 162.479Q568.258 162.479 558.598 157.159Q548.938 151.839 543.688 142.039Q538.438 132.239 538.438 119.079Q538.438 105.359 543.548 95.1394Q548.658 84.9194 558.108 79.3894Q567.558 73.8594 580.158 73.8594Q591.918 73.8594 600.808 78.5494Q609.698 83.2394 614.528 91.9194Q619.358 100.599 619.358 112.219ZM593.738 107.599Q593.738 101.579 590.098 97.9394Q586.458 94.2994 580.158 94.2994Q568.678 94.2994 565.458 107.599L593.738 107.599ZM664.578 162.479Q651.138 162.479 641.408 156.249Q631.678 150.019 628.038 139.379L648.898 130.699Q650.858 136.019 654.918 139.029Q658.978 142.039 664.158 142.039Q668.918 142.039 671.298 140.499Q673.678 138.959 673.678 136.159Q673.678 133.359 670.668 131.469Q667.658 129.579 661.638 128.319Q646.378 124.819 637.838 118.169Q629.298 111.519 629.298 100.599Q629.298 92.4794 633.568 86.4594Q637.838 80.4394 645.538 77.1494Q653.238 73.8594 663.458 73.8594Q675.918 73.8594 685.578 80.0894Q695.238 86.3194 699.158 96.9594L678.438 105.499Q676.058 100.319 672.068 97.3094Q668.078 94.2994 663.878 94.2994Q659.538 94.2994 657.298 95.9094Q655.058 97.5194 655.058 100.179Q655.058 103.119 658.208 104.939Q661.358 106.759 670.038 108.579Q699.438 115.159 699.438 135.319Q699.438 143.159 694.888 149.319Q690.338 155.479 682.358 158.979Q674.378 162.479 664.578 162.479ZM737.378 160.519L703.918 75.8194L731.918 75.8194L750.538 130.419L751.378 130.419L768.738 75.8194L796.738 75.8194L749.558 195.519L722.678 195.519L737.378 160.519ZM524.158 274.339Q517.858 287.919 506.588 295.199Q495.318 302.479 480.478 302.479Q465.218 302.479 453.178 294.919Q441.138 287.359 434.348 273.849Q427.558 260.339 427.558 243.259Q427.558 226.459 434.418 213.229Q441.278 199.999 453.598 192.579Q465.918 185.159 481.878 185.159Q510.578 185.159 523.878 213.299L500.778 223.379Q497.978 216.519 492.728 213.019Q487.478 209.519 480.338 209.519Q472.778 209.519 466.828 213.859Q460.878 218.199 457.588 225.829Q454.298 233.459 454.298 243.259Q454.298 253.339 457.588 261.249Q460.878 269.159 466.828 273.639Q472.778 278.119 480.338 278.119Q493.638 278.119 501.058 264.259L524.158 274.339ZM536.478 187.119L561.678 187.119L561.678 271.819Q561.678 276.719 566.578 276.719L570.778 276.719L570.778 300.519L558.458 300.519Q547.818 300.519 542.148 295.269Q536.478 290.019 536.478 280.219L536.478 187.119ZM602.418 302.479Q591.358 302.479 584.008 296.039Q576.658 289.599 576.658 278.119Q576.658 269.439 581.628 262.719Q586.598 255.999 595.768 252.289Q604.938 248.579 616.978 248.579L624.258 248.579L624.258 247.039Q624.258 241.019 620.968 237.869Q617.678 234.719 611.658 234.719Q602.978 234.719 595.978 243.399L579.598 231.219Q593.598 213.859 615.018 213.859Q625.238 213.859 633.008 217.919Q640.778 221.979 645.118 229.329Q649.458 236.679 649.458 246.199L649.458 300.519L624.258 300.519L624.258 291.139L623.418 291.139Q620.898 296.739 615.438 299.609Q609.978 302.479 602.418 302.479ZM610.538 282.039Q616.698 282.039 620.478 279.379Q624.258 276.719 624.258 272.239L624.258 269.019L619.498 269.019Q610.958 269.019 606.688 270.699Q602.418 272.379 602.418 276.439Q602.418 278.819 604.588 280.429Q606.758 282.039 610.538 282.039ZM683.198 300.519L657.018 215.819L684.038 215.819L696.638 270.139L697.478 270.139L710.358 215.819L736.118 215.819L749.138 270.139L749.978 270.139L762.438 215.819L789.458 215.819L763.278 300.519L737.518 300.519L723.658 247.179L722.818 247.179L708.958 300.519L683.198 300.519Z"></path></g></svg>