<svg xmlns="http://www.w3.org/2000/svg" xmlns:xlink="http://www.w3.org/1999/xlink" width="485.2000274658203" height="101.79998779296875" viewBox="0 0 485.2000274658203 101.79998779296875" fill="none"><g ><path     fill="#1e40af"  d="M3.09944e-06 79.9L18.2 79.9L22.5 62.8L44.5 62.8L48.8 79.9L67.6 79.9L44.5 5.4L23.1 5.4L3.09944e-06 79.9ZM25.9 49L27.5 42.7C29.4 35.3 31.4 26.6 33.2 18.8L33.6 18.8C35.6 26.4 37.5 35.3 39.5 42.7L41.1 49L25.9 49ZM99.8 81.3C106.4 81.3 114.2 79 120.1 74.8L114.2 64.1C110.1 66.5 106.3 67.7 102.2 67.7C95 67.7 89.6 64.5 88 56.7L121.4 56.7C121.8 55.3 122.2 52.2 122.2 49C122.2 33.5 114.2 21.6 97.8 21.6C84.1 21.6 70.8 33 70.8 51.4C70.8 70.3 83.4 81.3 99.8 81.3ZM87.7 45C88.9 38.3 93.2 35.2 98.1 35.2C104.6 35.2 107.1 39.4 107.1 45L87.7 45ZM150.6 81.3C166.1 81.3 174.3 73.2 174.3 62.7C174.3 52.4 166.4 48.3 159.3 45.6C153.4 43.5 148.5 42.2 148.5 38.8C148.5 36.1 150.4 34.7 154.5 34.7C158.2 34.7 162.2 36.6 166.3 39.5L174.2 28.9C169.4 25.2 162.8 21.6 153.9 21.6C140.6 21.6 131.9 28.9 131.9 39.6C131.9 49.1 139.6 53.7 146.4 56.4C152.2 58.7 157.7 60.3 157.7 63.7C157.7 66.5 155.7 68.2 151 68.2C146.5 68.2 141.8 66.1 136.6 62.2L128.7 73.3C134.5 78.1 143.2 81.3 150.6 81.3ZM191.7 101.8C205.2 101.8 211.4 94.6 216.9 80L236.5 23L219.5 23L212.9 46.6C211.6 52 210.3 57.3 209.2 62.7L208.7 62.7C207.2 57.1 206 51.8 204.3 46.6L196.7 23L178.8 23L200.6 78.2L199.8 81.1C198.5 85.1 195.7 87.9 190.3 87.9C189 87.9 187.5 87.4 186.5 87.2L183.3 100.7C185.7 101.4 188 101.8 191.7 101.8ZM277.9 81.3C287.6 81.3 295.9 77.6 302.2 70.3L292.8 59.1C289.3 62.9 284.6 65.9 278.6 65.9C268.1 65.9 261.3 57.3 261.3 42.5C261.3 28 269.2 19.4 278.8 19.4C284.1 19.4 288 21.8 291.8 25.2L301.1 13.8C296 8.6 288.2 4.1 278.5 4.1C259.6 4.1 243 18.3 243 43.1C243 68.3 259 81.3 277.9 81.3ZM327.9 81.3C331.9 81.3 334.8 80.6 336.7 79.8L334.6 66.7C333.6 66.9 333.2 66.9 332.6 66.9C331.2 66.9 329.5 65.8 329.5 62L329.5 -7.62939e-06L311.7 -7.62939e-06L311.7 61.4C311.7 73.3 315.7 81.3 327.9 81.3ZM359.3 81.3C365.6 81.3 370.9 78.4 375.6 74.2L376.1 74.2L377.3 79.9L391.8 79.9L391.8 47.6C391.8 29.8 383.5 21.6 368.8 21.6C359.9 21.6 351.8 24.6 344.3 29.1L350.5 40.8C356.2 37.6 360.9 35.8 365.4 35.8C371.2 35.8 373.6 38.5 374 43.1C351.8 45.5 342.4 52 342.4 64C342.4 73.5 348.8 81.3 359.3 81.3ZM365.4 67.5C361.7 67.5 359.3 65.9 359.3 62.6C359.3 58.6 362.9 55.3 374 53.9L374 63C371.4 65.8 369 67.5 365.4 67.5ZM415.1 79.9L435.4 79.9L440 58.2C441 52.9 441.8 47.7 442.7 41.5L443.2 41.5C444.2 47.7 445.1 52.9 446.2 58.2L451 79.9L471.8 79.9L485.2 23L468.7 23L463.8 48.4C462.8 54.1 462.2 59.7 461.3 65.5L460.8 65.5C459.6 59.7 458.6 54.1 457.3 48.4L451.2 23L435.9 23L430 48.4C428.6 54 427.7 59.7 426.7 65.5L426.2 65.5C425.3 59.7 424.7 54.1 423.8 48.4L418.7 23L401.1 23L415.1 79.9Z"></path></g></svg>