<svg xmlns="http://www.w3.org/2000/svg" xmlns:xlink="http://www.w3.org/1999/xlink" width="352.0144901275635" height="348.0069580078125" viewBox="0 0 352.0144901275635 348.0069580078125" fill="none"><circle cx="66.51449012756348" cy="166.5" r="21"   fill="#000000" ></circle><path d="M164.014 0.5L192.014 0.5L200.014 0.5L212.014 2.5L237.014 9.5C263.348 19.5 285.514 33.6667 303.514 52C249.314 82.1333 199.147 116.3 153.014 154.5L132.014 131.5C121.614 122.567 108.947 115.9 94.0145 111.5L84.0145 109.5L61.0145 109.5C37.0145 113.833 18.8478 124 6.51449 140L1.01449 147.5L0.51449 146C4.18115 125.333 10.5145 107.333 19.5145 92C29.3812 74.2 41.5478 58.7 56.0145 45.5C69.7478 32.9 85.7478 22.5667 104.014 14.5L138.014 3.5L155.014 0.5L164.014 0.5Z" stroke="rgba(0, 0, 0, 1)" stroke-width="1"      fill="#000000" ></path><path d="M323.014 76.5L325.514 77L318.014 85.5C276.281 125.433 236.115 169.933 200.514 216L157.514 276L129.514 322L120.514 340.5C108.181 337.367 97.0145 332.7 87.0145 326.5L71.0145 316.5L55.5145 304.5L55.5145 302L77.5145 274C95.3145 253.133 114.148 233.3 134.014 214.5C189.481 160.967 252.481 114.967 323.014 76.5Z" stroke="rgba(0, 0, 0, 1)" stroke-width="1"      fill="#000000" ></path><path d="M340.014 113.507L345.514 125.007L351.514 155.007L351.514 191.007L344.514 224.007L331.514 255.007C321.247 273.074 308.747 288.907 294.014 302.507C278.014 317.174 259.014 328.84 237.014 337.507L222.014 342.507L204.014 346.507L188.014 347.507L161.014 347.507L150.514 347.507L152.514 341.007L175.514 302.007L220.514 238.007C244.981 206.474 271.482 176.974 300.014 149.507L340.014 113.507Z" stroke="rgba(0, 0, 0, 1)" stroke-width="1"      fill="#000000" ></path></svg>