<svg xmlns="http://www.w3.org/2000/svg" xmlns:xlink="http://www.w3.org/1999/xlink" width="373.94000244140625" height="255.3599853515625" viewBox="0 0 373.94000244140625 255.3599853515625" fill="none"><g ><path     fill="#000000"  d="M110.04 113.4L82.46 113.4L74.76 90.58L35.28 90.58L27.58 113.4L4.88758e-06 113.4L41.72 7.62939e-06L68.32 7.62939e-06L110.04 113.4ZM54.6 33.88L43.68 66.22L66.36 66.22L55.44 33.88L54.6 33.88ZM196.56 65.1Q196.56 73.92 194.6 80.92L142.24 80.92Q144.9 94.92 158.48 94.92Q163.52 94.92 167.44 91.91Q171.36 88.9 173.6 83.86L194.32 92.4Q190.12 103.32 180.74 109.34Q171.36 115.36 158.34 115.36Q145.46 115.36 135.8 110.04Q126.14 104.72 120.89 94.92Q115.64 85.12 115.64 71.96Q115.64 58.24 120.75 48.02Q125.86 37.8 135.31 32.27Q144.76 26.74 157.36 26.74Q169.12 26.74 178.01 31.43Q186.9 36.12 191.73 44.8Q196.56 53.48 196.56 65.1ZM170.94 60.48Q170.94 54.46 167.3 50.82Q163.66 47.18 157.36 47.18Q145.88 47.18 142.66 60.48L170.94 60.48ZM241.78 115.36Q228.34 115.36 218.61 109.13Q208.88 102.9 205.24 92.26L226.1 83.58Q228.06 88.9 232.12 91.91Q236.18 94.92 241.36 94.92Q246.12 94.92 248.5 93.38Q250.88 91.84 250.88 89.04Q250.88 86.24 247.87 84.35Q244.86 82.46 238.84 81.2Q223.58 77.7 215.04 71.05Q206.5 64.4 206.5 53.48Q206.5 45.36 210.77 39.34Q215.04 33.32 222.74 30.03Q230.44 26.74 240.66 26.74Q253.12 26.74 262.78 32.97Q272.44 39.2 276.36 49.84L255.64 58.38Q253.26 53.2 249.27 50.19Q245.28 47.18 241.08 47.18Q236.74 47.18 234.5 48.79Q232.26 50.4 232.26 53.06Q232.26 56 235.41 57.82Q238.56 59.64 247.24 61.46Q276.64 68.04 276.64 88.2Q276.64 96.04 272.09 102.2Q267.54 108.36 259.56 111.86Q251.58 115.36 241.78 115.36ZM314.58 113.4L281.12 28.7L309.12 28.7L327.74 83.3L328.58 83.3L345.94 28.7L373.94 28.7L326.76 148.4L299.88 148.4L314.58 113.4ZM101.36 227.22Q95.06 240.8 83.79 248.08Q72.52 255.36 57.68 255.36Q42.42 255.36 30.38 247.8Q18.34 240.24 11.55 226.73Q4.76 213.22 4.76 196.14Q4.76 179.34 11.62 166.11Q18.48 152.88 30.8 145.46Q43.12 138.04 59.08 138.04Q87.78 138.04 101.08 166.18L77.98 176.26Q75.18 169.4 69.93 165.9Q64.68 162.4 57.54 162.4Q49.98 162.4 44.03 166.74Q38.08 171.08 34.79 178.71Q31.5 186.34 31.5 196.14Q31.5 206.22 34.79 214.13Q38.08 222.04 44.03 226.52Q49.98 231 57.54 231Q70.84 231 78.26 217.14L101.36 227.22ZM113.68 140L138.88 140L138.88 224.7Q138.88 229.6 143.78 229.6L147.98 229.6L147.98 253.4L135.66 253.4Q125.02 253.4 119.35 248.15Q113.68 242.9 113.68 233.1L113.68 140ZM179.62 255.36Q168.56 255.36 161.21 248.92Q153.86 242.48 153.86 231Q153.86 222.32 158.83 215.6Q163.8 208.88 172.97 205.17Q182.14 201.46 194.18 201.46L201.46 201.46L201.46 199.92Q201.46 193.9 198.17 190.75Q194.88 187.6 188.86 187.6Q180.18 187.6 173.18 196.28L156.8 184.1Q170.8 166.74 192.22 166.74Q202.44 166.74 210.21 170.8Q217.98 174.86 222.32 182.21Q226.66 189.56 226.66 199.08L226.66 253.4L201.46 253.4L201.46 244.02L200.62 244.02Q198.1 249.62 192.64 252.49Q187.18 255.36 179.62 255.36ZM187.74 234.92Q193.9 234.92 197.68 232.26Q201.46 229.6 201.46 225.12L201.46 221.9L196.7 221.9Q188.16 221.9 183.89 223.58Q179.62 225.26 179.62 229.32Q179.62 231.7 181.79 233.31Q183.96 234.92 187.74 234.92ZM260.4 253.4L234.22 168.7L261.24 168.7L273.84 223.02L274.68 223.02L287.56 168.7L313.32 168.7L326.34 223.02L327.18 223.02L339.64 168.7L366.66 168.7L340.48 253.4L314.72 253.4L300.86 200.06L300.02 200.06L286.16 253.4L260.4 253.4Z"></path></g></svg>